# xmcd CD database file
#
# Track frame offsets:
#	150
#	16463
#	40039
#	53375
#	63959
#	77670
#	90480
#	107750
#	119596
#	133761
#	144436
#	158173
#	176092
#	190185
#	203342
#
# Disc length: 2864 seconds
#
# Revision: 0
# Processed by: cddbd v1.5.2PL0 Copyright (c) Steve Scherf et al.
# Submitted via: CDex 1.51
#
DISCID=bd0b2e0f
DTITLE=Various Artist - SUPERSTARS OF COUNTRY "1970'S COUNTRY" (Disk 2)
DYEAR=1900
DGENRE=Country
TTITLE0=ELVIS PRESLEY - ALWAYS ON MY MIND
TTITLE1=DR. HOOK - WHEN YOU'RE IN LOVE WITH A BEAUTIFUL WOMAN
TTITLE2=CRYSTAL GAYLE - WHY HAVE YOU LEFT THE ONE YOU LEFT ME FOR
TTITLE3=JIM REEVES and DEBORAH ALLEN - DON'T LET ME CROSS OVER
TTITLE4=B. J. THOMAS - RAINDROPS KEEP FALLING ON MY HEAD
TTITLE5=TANYA TUCKER - SAN ANTONIO STROLL
TTITLE6=RAY PRICE - YOU'RE THE BEST THING THAT EVER HAPPENED TO ME
TTITLE7=LORETTA LYNN - THE PILL
TTITLE8=CHARLIE RICH - WE LOVE EACH OTHER
TTITLE9=JESSI COLTER - WHAT'S HAPPENED TO BLUE EYES
TTITLE10=GEORGE JONES and TAMMY WYNETTE - GOLDEN RING
TTITLE11=RONNIE MILSAP - WHAT A DIFFERENCE YOU'VE MADE IN MY LIFE
TTITLE12=BARBARA MANDRELL - (IF LOVING YOU IS WRONG) I DON'T WANT TO BE RIGHT
TTITLE13=RAY STEVENS - MISTY
TTITLE14=SLIM WHITMAN - HAPPY ANNIVERSARY
EXTD=
EXTT0=
EXTT1=
EXTT2=
EXTT3=
EXTT4=
EXTT5=
EXTT6=
EXTT7=
EXTT8=
EXTT9=
EXTT10=
EXTT11=
EXTT12=
EXTT13=
EXTT14=
PLAYORDER=
